:SAMPLES-PER-SECOND 30
:FULLY-SPECIFIED
:DEGREES
50
root  67.0201 38.5266 -7.41439 -82.7084 -87.5342 82.7251
RightUpLeg  14.5586 -11.1596 -8.75436
RightLeg  11.2093 -0.721494 3.13966
RightFoot  -21.5675 0.134878 3.13257
RightToes  1.16414e-010 0 -3.6325e-017
Spine  6.20489 1.91003 9.91096
Spine1  9.20112 5.04744 -9.80369
HEad  -12.65 3.41163 -8.87223
LeftShoulder1  8.78084 -12.5941 -47.6061
LeftArm  -15.4322 25.0225 -22.692
LeftForeArm  21.7983 -22.2397 -3.6715
LeftHand  -0.244104 0.0205437 5.32207
RightShoulder  6.38823 10.4422 39.6848
RightArm  -4.70486 8.52042 31.8431
RightForeArm  -6.30781 36.6429 8.70854
RightHand  -0.977071 0.698431 -18.6118
LeftUpLeg  -24.9594 10.1109 -6.83416
LeftLeg  13.2953 7.54419 0.771227
LeftFoot  2.40931 -0.0475166 0.220781
LeftToes  -6.73059e-011 1.31891e-010 -1.28765e-011
51
root  65.6686 38.3415 -7.29608 -109.692 -86.758 109.501
RightUpLeg  15.8298 -11.8716 -10.4401
RightLeg  13.1647 2.07667 2.23687
RightFoot  -21.6386 0.291261 4.82748
RightToes  1.16414e-010 0 -3.6325e-017
Spine  5.83127 2.14961 8.15735
Spine1  9.17981 5.27094 -9.88648
HEad  -12.4958 4.41842 -8.53651
LeftShoulder1  8.63915 -12.3127 -47.6714
LeftArm  -14.4287 25.5599 -22.0326
LeftForeArm  20.9828 -20.4615 -3.53467
LeftHand  -0.244104 0.0205437 5.32207
RightShoulder  6.57717 10.7348 40.0511
RightArm  -2.23749 8.48783 31.8525
RightForeArm  -4.97261 37.3632 8.85341
RightHand  -1.25612 2.0227 -19.7351
LeftUpLeg  -24.6519 11.6061 -8.36756
LeftLeg  16.2791 6.51571 2.02303
LeftFoot  3.83071 -0.551946 4.0164
LeftToes  -6.73059e-011 1.31891e-010 -1.28765e-011
52
root  64.3337 38.2649 -7.18613 -111.91 -85.8142 111.292
RightUpLeg  16.2271 -11.2863 -11.6598
RightLeg  16.8507 3.23794 1.20117
RightFoot  -20.4192 0.578845 9.16434
RightToes  1.16414e-010 0 -3.6325e-017
Spine  6.23209 2.08665 5.66593
Spine1  8.47046 4.91559 -9.32344
HEad  -12.4348 5.06006 -8.40481
LeftShoulder1  8.74089 -12.3043 -48.2636
LeftArm  -13.1641 25.3092 -21.0334
LeftForeArm  19.1905 -16.8915 -3.61565
LeftHand  -0.244104 0.0205437 5.32207
RightShoulder  6.71404 10.8424 40.6259
RightArm  0.0726796 7.38898 32.0986
RightForeArm  -1.79795 36.7056 8.47202
RightHand  -1.2802 2.4353 -19.0464
LeftUpLeg  -24.0781 11.6036 -9.31411
LeftLeg  19.915 6.59994 3.02512
LeftFoot  2.54391 -0.777149 6.24704
LeftToes  -6.73059e-011 1.31891e-010 -1.28765e-011
53
root  63.0619 38.3545 -7.05741 -110.825 -85.3936 109.867
RightUpLeg  14.2107 -8.23666 -11.4899
RightLeg  23.7852 1.12021 0.243443
RightFoot  -15.6012 0.391816 13.5391
RightToes  1.16414e-010 0 -3.6325e-017
Spine  6.85651 2.00272 3.9563
Spine1  7.55817 4.57085 -8.92142
HEad  -12.3166 5.20076 -8.37495
LeftShoulder1  8.95336 -12.5066 -48.819
LeftArm  -12.3853 23.5229 -20.3602
LeftForeArm  18.1283 -11.1872 -4.0137
LeftHand  -0.244104 0.0205437 5.32207
RightShoulder  6.78549 10.7923 41.2504
RightArm  1.93603 5.15191 32.5507
RightForeArm  -0.0402595 34.602 7.76287
RightHand  -1.18187 2.2129 -18.1286
LeftUpLeg  -22.6586 11.5091 -9.4827
LeftLeg  22.2522 6.91759 3.43065
LeftFoot  -0.456888 -0.583992 6.12071
LeftToes  -6.73059e-011 1.31891e-010 -1.28765e-011
54
root  61.8462 38.6013 -6.90768 -117.684 -85.1414 116.585
RightUpLeg  9.34631 -4.97006 -10.7733
RightLeg  33.8154 -1.2731 -1.16831
RightFoot  -6.40164 -0.631112 14.2385
RightToes  1.16414e-010 0 -3.6325e-017
Spine  7.15229 2.09096 3.16619
Spine1  6.99866 4.54437 -8.77249
HEad  -12.0448 5.49961 -8.47603
LeftShoulder1  9.03286 -12.6537 -48.8045
LeftArm  -11.524 20.973 -20.8022
LeftForeArm  18.0152 -5.76729 -4.24591
LeftHand  -0.244104 0.0205437 5.32207
RightShoulder  6.84671 10.7196 41.8799
RightArm  4.70808 2.6881 33.0938
RightForeArm  -2.21612 30.919 6.89311
RightHand  -1.14181 1.96716 -18.0912
LeftUpLeg  -20.2054 13.0233 -9.29943
LeftLeg  22.1017 6.16983 3.09081
LeftFoot  -2.95886 -0.36643 5.25286
LeftToes  -6.73059e-011 1.31891e-010 -1.28765e-011
55
root  60.6817 38.8764 -6.76727 -127.692 -84.6668 126.445
RightUpLeg  3.08077 -2.27522 -10.1756
RightLeg  44.2827 -2.20561 -2.58273
RightFoot  2.79995 -1.44083 11.7349
RightToes  1.16414e-010 0 -3.6325e-017
Spine  7.32591 2.13591 1.99411
Spine1  6.77517 4.29636 -8.03582
HEad  -11.712 6.398 -8.88195
LeftShoulder1  8.99794 -12.6613 -48.5919
LeftArm  -10.6241 18.9438 -21.9482
LeftForeArm  19.2833 -3.22312 -4.47754
LeftHand  -0.244104 0.0205437 5.32207
RightShoulder  6.92522 10.7146 42.4102
RightArm  9.56084 0.640691 33.6876
RightForeArm  -6.13565 26.2251 5.93127
RightHand  -1.08357 1.6705 -17.8734
LeftUpLeg  -17.2819 15.2195 -8.9952
LeftLeg  20.7569 5.06569 2.44888
LeftFoot  -4.41793 -0.266049 4.84419
LeftToes  -6.73059e-011 1.31891e-010 -1.28765e-011
56
root  59.5426 39.1593 -6.63146 -133.64 -84.5354 132.06
RightUpLeg  -2.76037 -0.861444 -9.56827
RightLeg  52.6473 -2.15554 -3.40575
RightFoot  6.76808 -1.43013 9.18974
RightToes  1.16414e-010 0 -3.6325e-017
Spine  7.70586 1.77269 0.592375
Spine1  6.60959 3.41913 -6.50873
HEad  -11.6084 7.51147 -9.46768
LeftShoulder1  9.03048 -12.6693 -48.7437
LeftArm  -9.79657 17.5285 -22.858
LeftForeArm  21.861 -3.71154 -4.91322
LeftHand  -0.244104 0.0205437 5.32207
RightShoulder  6.99956 10.7438 42.8018
RightArm  14.3832 -1.43259 34.1772
RightForeArm  -6.68548 21.7994 5.43824
RightHand  -0.964837 1.29787 -16.818
LeftUpLeg  -14.0012 16.0765 -8.20096
LeftLeg  19.125 4.90693 1.8332
LeftFoot  -5.43493 -0.207233 4.64956
LeftToes  -6.73059e-011 1.31891e-010 -1.28765e-011
